<?xml version="1.0" encoding="UTF-8" standalone="no"?>
<svg
   xmlns:dc="http://purl.org/dc/elements/1.1/"
   xmlns:cc="http://creativecommons.org/ns#"
   xmlns:rdf="http://www.w3.org/1999/02/22-rdf-syntax-ns#"
   xmlns:svg="http://www.w3.org/2000/svg"
   xmlns="http://www.w3.org/2000/svg"
   xmlns:sodipodi="http://sodipodi.sourceforge.net/DTD/sodipodi-0.dtd"
   xmlns:inkscape="http://www.inkscape.org/namespaces/inkscape"
   inkscape:version="1.0 (4035a4f, 2020-05-01)"
   height="50"
   width="50"
   sodipodi:docname="google.svg"
   xml:space="preserve"
   viewBox="0 0 50 50"
   y="0px"
   x="0px"
   id="Layer_1"
   version="1.1"><metadata
   id="metadata876"><rdf:RDF><cc:Work
       rdf:about=""><dc:format>image/svg+xml</dc:format><dc:type
         rdf:resource="http://purl.org/dc/dcmitype/StillImage" /><dc:title></dc:title></cc:Work></rdf:RDF></metadata><defs
   id="defs874" /><sodipodi:namedview
   inkscape:current-layer="Layer_1"
   inkscape:window-maximized="0"
   inkscape:window-y="23"
   inkscape:window-x="0"
   inkscape:cy="18.304441"
   inkscape:cx="35.074875"
   inkscape:zoom="6.2866212"
   showgrid="false"
   id="namedview872"
   inkscape:window-height="714"
   inkscape:window-width="1230"
   inkscape:pageshadow="2"
   inkscape:pageopacity="0"
   guidetolerance="10"
   gridtolerance="10"
   objecttolerance="10"
   borderopacity="1"
   bordercolor="#666666"
   pagecolor="#ffffff" />



<g
   transform="scale(0.09765625)"
   id="g882"><path
     style="fill:#fbbb00"
     d="M 113.47,309.408 95.648,375.94 30.509,377.318 C 11.042,341.211 0,299.9 0,256 0,213.549 10.324,173.517 28.624,138.268 h 0.014 l 57.992,10.632 25.404,57.644 c -5.317,15.501 -8.215,32.141 -8.215,49.456 0.002,18.792 3.406,36.797 9.651,53.408 z"
     id="path833" /><path
     style="fill:#518ef8"
     d="m 507.527,208.176 c 2.94,15.486 4.473,31.479 4.473,47.824 0,18.328 -1.927,36.206 -5.598,53.451 -12.462,58.683 -45.025,109.925 -90.134,146.187 l -0.014,-0.014 -73.044,-3.727 -10.338,-64.535 c 29.932,-17.554 53.324,-45.025 65.646,-77.911 H 261.628 V 208.176 h 138.887 z"
     id="path835" /><path
     style="fill:#28b446"
     d="m 416.253,455.624 0.014,0.014 C 372.396,490.901 316.666,512 256,512 158.509,512 73.748,457.509 30.509,377.319 l 82.961,-67.91 c 21.619,57.698 77.278,98.771 142.53,98.771 28.047,0 54.323,-7.582 76.87,-20.818 z"
     id="path837" /><path
     style="fill:#f14336"
     d="m 419.404,58.936 -82.933,67.896 C 313.136,112.246 285.552,103.82 256,103.82 c -66.729,0 -123.429,42.957 -143.965,102.724 L 28.638,138.268 H 28.624 C 71.23,56.123 157.06,0 256,0 318.115,0 375.068,22.126 419.404,58.936 Z"
     id="path839" /></g>
<g
   id="g841">
</g>
<g
   id="g843">
</g>
<g
   id="g845">
</g>
<g
   id="g847">
</g>
<g
   id="g849">
</g>
<g
   id="g851">
</g>
<g
   id="g853">
</g>
<g
   id="g855">
</g>
<g
   id="g857">
</g>
<g
   id="g859">
</g>
<g
   id="g861">
</g>
<g
   id="g863">
</g>
<g
   id="g865">
</g>
<g
   id="g867">
</g>
<g
   id="g869">
</g>
</svg>
